<svg xmlns="http://www.w3.org/2000/svg" width="68" height="68" viewBox="0 0 68 68"><g transform="translate(1 1)" opacity="0.35"><rect width="66" height="66" rx="4.923" transform="translate(0)" fill="none" stroke="#fff" stroke-miterlimit="10" stroke-width="2"/><line x2="66" transform="translate(0 13)" fill="none" stroke="#fff" stroke-miterlimit="10" stroke-width="2"/><line y2="51" transform="translate(24 14)" fill="none" stroke="#fff" stroke-miterlimit="10" stroke-width="2"/><rect width="24" height="13" rx="2.153" transform="translate(33 23)" fill="none" stroke="#fff" stroke-miterlimit="10" stroke-width="2"/><rect width="24" height="13" rx="2.153" transform="translate(33 42)" fill="none" stroke="#fff" stroke-miterlimit="10" stroke-width="2"/><circle cx="1.5" cy="1.5" r="1.5" transform="translate(6 5.26)" fill="#fff"/><circle cx="1.5" cy="1.5" r="1.5" transform="translate(11.178 5.26)" fill="#fff"/><circle cx="1.5" cy="1.5" r="1.5" transform="translate(16.524 5.26)" fill="#fff"/><circle cx="1.5" cy="1.5" r="1.5" transform="translate(5.5 39.703)" fill="#fff"/><rect width="9.664" height="2.656" rx="1.328" transform="translate(9.836 51.854)" fill="#fff"/><rect width="9.664" height="2.656" rx="1.328" transform="translate(9.836 45.951)" fill="#fff"/><circle cx="1.5" cy="1.5" r="1.5" transform="translate(5.5 20.805)" fill="#fff"/><rect width="9.664" height="2.656" rx="1.328" transform="translate(9.836 32.958)" fill="#fff"/><rect width="9.664" height="2.656" rx="1.328" transform="translate(9.836 27.055)" fill="#fff"/></g></svg>